HIERARCHY
ROOT Hips
{
	OFFSET 0.0000 0.0000 0.0000
	CHANNELS 6 Xposition Yposition Zposition Zrotation Xrotation Yrotation
	JOINT Ab
	{
		OFFSET -0.0000 8.0846 -0.0000
		CHANNELS 3 Zrotation Xrotation Yrotation
		JOINT Chest
		{
			OFFSET -0.0000 25.0068 -0.0000
			CHANNELS 3 Zrotation Xrotation Yrotation
			JOINT Neck
			{
				OFFSET -0.0000 25.0068 0.0000
				CHANNELS 3 Zrotation Xrotation Yrotation
				JOINT Head
				{
					OFFSET -0.0000 10.7556 0.0000
					CHANNELS 3 Zrotation Xrotation Yrotation
					End Site
					{
						OFFSET -0.0000 16.6222 0.0000
					}
				}
			}
			JOINT LeftCollar
			{
				OFFSET -0.0000 25.0068 0.0000
				CHANNELS 3 Zrotation Xrotation Yrotation
				JOINT LeftShoulder
				{
					OFFSET 19.5556 -0.0000 0.0000
					CHANNELS 3 Zrotation Xrotation Yrotation
					JOINT LeftElbow
					{
						OFFSET 27.1828 0.0000 0.0000
						CHANNELS 3 Zrotation Xrotation Yrotation
						JOINT LeftWrist
						{
							OFFSET 23.3157 0.0000 0.0000
							CHANNELS 3 Zrotation Xrotation Yrotation
							End Site
							{
								OFFSET 0.0000 -14.6667 0.0000
							}
						}
					}
				}
			}
			JOINT RightCollar
			{
				OFFSET -0.0000 25.0068 0.0000
				CHANNELS 3 Zrotation Xrotation Yrotation
				JOINT RightShoulder
				{
					OFFSET -19.5556 0.0000 0.0000
					CHANNELS 3 Zrotation Xrotation Yrotation
					JOINT RightElbow
					{
						OFFSET -27.1828 0.0000 0.0000
						CHANNELS 3 Zrotation Xrotation Yrotation
						JOINT RightWrist
						{
							OFFSET -23.3157 0.0000 0.0000
							CHANNELS 3 Zrotation Xrotation Yrotation
							End Site
							{
								OFFSET -0.0000 -14.6667 0.0000
							}
						}
					}
				}
			}
		}
	}
	JOINT LeftHip
	{
		OFFSET 11.7333 0.0000 0.0000
		CHANNELS 3 Zrotation Xrotation Yrotation
		JOINT LeftKnee
		{
			OFFSET -0.0000 -40.8688 0.0000
			CHANNELS 3 Zrotation Xrotation Yrotation
			JOINT LeftAnkle
			{
				OFFSET -0.0000 -44.4337 0.0000
				CHANNELS 3 Zrotation Xrotation Yrotation
				End Site
				{
					OFFSET -0.0000 -4.8889 16.6222
				}
			}
		}
	}
	JOINT RightHip
	{
		OFFSET -11.7333 0.0000 0.0000
		CHANNELS 3 Zrotation Xrotation Yrotation
		JOINT RightKnee
		{
			OFFSET -0.0000 -40.8688 0.0000
			CHANNELS 3 Zrotation Xrotation Yrotation
			JOINT RightAnkle
			{
				OFFSET -0.0000 -44.4337 0.0000
				CHANNELS 3 Zrotation Xrotation Yrotation
				End Site
				{
					OFFSET -0.0000 -4.8889 16.6222
				}
			}
		}
	}
}
MOTION
Frames: 19
Frame Time: 0.010000
-3.9254 88.5672 189.8092 2.2043 0.2891 176.4659 1.1261 359.2724 358.2504 359.4844 11.1812 358.2955 0.7310 344.1161 1.0897 2.5339 9.6919 0.7666 338.4817 358.5256 7.7452 301.0257 30.3105 356.1469 14.5307 354.9727 322.1796 84.9811 1.0942 340.7685 22.0410 358.8684 354.1517 61.7180 45.7421 5.3767 336.8538 354.0775 28.2076 274.3793 353.3831 16.2783 3.0233 359.2501 356.8918 359.1667 10.3702 357.0153 355.0366 350.7269 22.1750 359.5947 352.7169 0.7991 358.8752 19.7485 8.4617 359.1399 343.5762 337.4281 
-3.9313 88.5702 189.7875 2.2024 0.3152 176.4675 1.1020 359.3143 358.2464 359.4923 11.1674 358.2901 0.6655 344.0792 1.0557 2.5819 9.7759 0.7358 338.4738 358.5358 7.7767 301.0258 30.3014 356.1437 14.5562 354.9977 322.2185 84.8758 1.0584 340.7791 22.0524 358.8668 354.1712 61.7019 45.7588 5.3751 336.8402 354.1060 28.2228 274.3683 353.4461 16.3695 3.0185 359.3241 356.6936 359.1343 10.3038 357.1467 355.0844 350.7240 22.2270 359.5837 352.7701 0.8131 358.8859 19.7242 8.4198 359.0729 343.6030 337.4565 
-3.9409 88.5717 189.7818 2.1982 0.2794 176.4782 1.0785 359.3031 358.2369 359.5109 11.1586 358.2792 0.5495 343.9935 0.9854 2.6456 9.9170 0.6703 338.4771 358.5231 7.7582 300.9800 30.2155 356.1869 14.5324 354.9836 322.1966 84.9251 1.0495 340.7294 22.0512 358.8489 354.1851 61.6826 45.7819 5.3855 336.8113 354.0948 28.2067 274.3887 353.4308 16.3237 3.0157 359.2463 356.6199 359.1030 10.3926 357.2061 355.0975 350.6693 22.2228 359.5671 352.7423 0.8341 358.9033 19.7200 8.3706 359.1211 343.5616 337.4799 
-3.9527 88.5727 189.7666 2.1871 0.2679 176.4799 1.0443 359.3053 358.2366 359.5219 11.1654 358.2781 0.4601 343.9130 0.9304 2.7064 10.0336 0.6219 338.4817 358.5331 7.7840 300.9642 30.2065 356.1863 14.5448 355.0057 322.2087 84.8789 1.0483 340.7364 22.0547 358.8693 354.2072 61.6444 45.7628 5.4108 336.8767 354.1222 28.2048 274.3481 353.4261 16.3427 3.0042 359.2182 356.5838 359.0785 10.4448 357.1990 355.1113 350.6325 22.2671 359.5399 352.7449 0.8541 358.9166 19.7181 8.4053 359.1236 343.5348 337.4495 
-3.9665 88.5736 189.7578 2.1792 0.2418 176.5013 1.0005 359.3053 358.2377 359.5493 11.1596 358.2762 0.3065 343.8176 0.8215 2.8419 10.1865 0.5135 338.4867 358.5312 7.7686 300.9316 30.1303 356.2093 14.5177 355.0046 322.1738 84.8795 1.0927 340.6521 22.0465 358.8612 354.2044 61.6260 45.7827 5.4437 336.8334 354.1085 28.2014 274.3926 353.4428 16.3508 2.9927 359.1434 356.5567 359.0590 10.5380 357.2014 355.1336 350.5656 22.2740 359.5099 352.7343 0.8458 358.9377 19.7052 8.3715 359.1241 343.5194 337.4871 
-3.9860 88.5741 189.7455 2.1637 0.2187 176.5123 0.9671 359.3046 358.2441 359.5478 11.1595 358.2837 0.2064 343.7291 0.7424 2.9401 10.3213 0.4389 338.4974 358.5118 7.7753 300.9057 30.1497 356.2220 14.5665 354.9831 322.1682 84.7971 1.1041 340.6560 22.0496 358.8718 354.1995 61.5883 45.8069 5.4921 336.8477 354.1132 28.1692 274.4000 353.4290 16.3642 2.9686 359.0768 356.5348 359.0504 10.6275 357.1548 355.1718 350.4969 22.3110 359.4667 352.7254 0.8306 358.9551 19.6938 8.3608 359.1187 343.5174 337.5261 
-4.0090 88.5748 189.7323 2.1414 0.1977 176.5235 0.9217 359.3215 358.2557 359.5562 11.1272 358.2945 0.0484 343.6531 0.6357 3.0706 10.4697 0.3368 338.4915 358.5190 7.7516 300.8727 30.0850 356.2730 14.5062 355.0192 322.1938 84.8802 1.0611 340.6225 22.0535 358.8648 354.1946 61.5675 45.8476 5.5026 336.8220 354.1129 28.1296 274.4031 353.3467 16.3776 2.9447 359.0153 356.5157 359.0188 10.7188 357.0962 355.2104 350.4435 22.3741 359.4058 352.7270 0.8545 359.0042 19.6715 8.3332 359.3807 343.4518 337.5928 
-4.0343 88.5771 189.7210 2.1228 0.1759 176.5417 0.8867 359.3478 358.2503 359.5625 11.0813 358.2885 359.8321 343.6242 0.4866 3.2668 10.5996 0.1923 338.4901 358.5239 7.7250 300.8279 29.9996 356.3246 14.4561 355.0203 322.1920 84.9373 1.0331 340.5667 22.0584 358.8701 354.2000 61.5383 45.8332 5.5097 336.8509 354.1208 28.1155 274.4452 353.3029 16.4508 2.9227 358.9321 356.5577 358.9942 10.8402 357.0282 355.2438 350.3806 22.3889 359.3512 352.7325 0.8762 359.0443 19.6425 8.2872 359.3514 343.4327 337.6032 
-4.0661 88.5793 189.7093 2.1000 0.1485 176.5683 0.8655 359.3718 358.2327 359.5423 11.0344 358.2720 359.6390 343.5508 0.3687 3.4588 10.7590 0.0775 338.5007 358.5320 7.7039 300.7716 29.8395 356.3834 14.3758 355.0591 322.1688 84.9791 0.9966 340.4608 22.0697 358.8857 354.2129 61.4847 45.8078 5.5436 336.9010 354.1225 28.1208 274.4807 353.2806 16.5091 2.8901 358.8386 356.5684 358.9706 10.9652 356.9683 355.2790 350.3145 22.4206 359.2840 352.7401 0.9073 359.0922 19.5988 8.2321 359.5110 343.3120 337.5503 
-4.1041 88.5816 189.6965 2.0716 0.1171 176.6004 0.8473 359.3948 358.2089 359.5070 10.9807 358.2515 359.3930 343.4963 0.2210 3.7234 10.8655 359.9526 338.5141 358.5384 7.6807 300.7103 29.6443 356.4574 14.2862 355.0996 322.1201 84.9984 1.0056 340.3256 22.0834 358.8857 354.2372 61.4361 45.8314 5.5657 336.8981 354.1160 28.1256 274.5672 353.2808 16.5348 2.8473 358.7492 356.5597 358.9483 11.0765 356.8939 355.3092 350.2461 22.4753 359.2061 352.7436 0.9252 359.1384 19.5587 8.1817 359.6930 343.2649 337.6398 
-4.1485 88.5843 189.6836 2.0392 0.0791 176.6391 0.8273 359.4141 358.1823 359.4768 10.9273 358.2282 359.1043 343.3962 0.0683 4.0298 11.0416 359.8007 338.5191 358.5380 7.6838 300.6634 29.5971 356.5070 14.2913 355.0820 322.1051 84.9630 1.0206 340.2891 22.0885 358.8815 354.2654 61.3910 45.8618 5.5822 336.8343 354.1004 28.0979 274.7621 353.1737 16.3065 2.7969 358.6524 356.5563 358.9289 11.1842 356.8193 355.3393 350.1776 22.5144 359.1197 352.7441 0.9505 359.1927 19.5100 8.1051 359.3616 343.3498 337.6737 
-4.1967 88.5869 189.6739 2.0072 0.0242 176.6844 0.7965 359.4181 358.1606 359.4624 10.8759 358.2090 358.8151 343.2186 359.9179 4.3073 11.3501 359.6394 338.5167 358.5441 7.7162 300.6351 29.6858 356.5052 14.3382 355.0569 322.1882 84.9825 0.9440 340.3388 22.0886 358.8896 354.2827 61.3064 45.8936 5.6335 336.8695 354.1249 28.0905 274.8281 353.0980 16.3350 2.7492 358.5169 356.5362 358.8959 11.3267 356.7657 355.3818 350.1031 22.5491 359.0360 352.7307 0.9837 359.2420 19.4560 8.0201 359.3693 343.3261 337.6982 
-4.2508 88.5895 189.6588 1.9786 359.9748 176.7240 0.7453 359.4084 358.1650 359.4668 10.8623 358.2128 358.4907 342.9707 359.7142 4.6048 11.7617 359.4491 338.5104 358.5333 7.7180 300.5985 29.6764 356.5083 14.3587 355.0535 322.2285 85.0123 0.8797 340.3241 22.0823 358.8754 354.2704 61.1845 45.9080 5.7301 336.8634 354.1302 28.1385 274.8224 353.2292 16.2590 2.7006 358.3836 356.6200 358.8841 11.4888 356.5976 355.4253 350.0159 22.5873 358.9565 352.7359 1.0361 359.2854 19.3837 7.9340 359.3993 343.3147 337.7203 
-4.3136 88.5925 189.6374 1.9494 359.9331 176.7605 0.6941 359.4025 358.1769 359.4723 10.8626 358.2241 358.1020 342.6783 359.4809 4.9896 12.2358 359.2144 338.5014 358.5455 7.6301 300.5441 29.4075 356.5869 14.1755 355.1485 322.1990 85.1770 0.8396 340.1508 22.0869 358.8518 354.2082 61.0176 45.8861 5.8604 336.9412 354.1478 28.2006 274.7489 353.3550 16.3422 2.6396 358.2412 356.7388 358.8878 11.6911 356.4029 355.5075 349.9145 22.6296 358.8709 352.7541 1.1039 359.2572 19.3057 8.3008 359.5213 343.4490 337.5257 
-4.3824 88.5955 189.6174 1.9254 359.8859 176.7923 0.6806 359.4155 358.1700 359.4423 10.8155 358.2205 357.7867 342.5166 359.3107 5.3393 12.5226 359.0501 338.4959 358.5457 7.6097 300.5098 29.4084 356.6196 14.1803 355.1278 322.2114 85.2095 0.7978 340.1548 22.1045 358.8625 354.1850 60.8683 45.9385 5.9443 337.0281 354.1855 28.1692 274.9861 352.9170 16.6020 2.5776 358.1522 356.7071 358.8655 11.7741 356.4160 355.5924 349.8754 22.6488 358.7952 352.7572 1.1335 359.1045 19.2363 9.3144 359.8107 343.7149 336.9912 
-4.4545 88.5982 189.6043 1.9122 359.8118 176.8304 0.6758 359.4222 358.1571 359.4096 10.7440 358.2100 359.4701 343.0936 359.4552 1.6432 11.2025 359.3382 338.4886 358.5277 7.6218 300.4824 29.4256 356.6519 14.2077 355.1265 322.2089 85.2294 0.8036 340.2062 22.1137 358.8806 354.1974 60.7561 45.9992 6.0064 337.0390 354.1496 28.2557 275.0773 353.0961 16.7189 2.5384 358.0320 356.5785 358.8064 11.8563 356.4645 355.6815 349.8453 22.7298 358.7348 352.7316 1.1532 359.1145 19.1674 9.2493 359.8886 343.6913 337.0238 
-4.5337 88.6018 189.5845 1.8901 359.7469 176.8391 0.6371 359.4247 358.1691 359.4126 10.6948 358.2223 359.4036 343.0239 359.4057 1.7674 11.3197 359.3099 338.4712 358.5261 7.6402 300.4280 29.4141 356.6900 14.2025 355.1056 322.2311 85.2985 0.7722 340.1970 22.0906 358.8626 354.2116 60.6474 46.0689 6.0763 337.0524 354.1287 28.3309 275.1174 353.1644 16.9749 2.4774 357.9704 356.3382 358.7347 11.8694 356.6977 355.7207 349.8200 22.7395 358.6614 352.7116 1.1901 359.1248 19.1105 9.1846 359.9401 343.6841 337.0547 
-4.6198 88.6054 189.5613 1.8757 359.6836 176.8483 0.6010 359.4189 358.2067 359.4058 10.6692 358.2604 359.3879 342.9257 359.3403 1.7669 11.4264 359.2401 338.4473 358.5539 7.6020 300.4166 29.5095 356.7318 14.2685 355.0700 322.3038 85.3959 0.6670 340.3207 22.0709 358.8807 354.1933 60.5314 46.1300 6.1702 337.1049 354.1254 28.3661 275.1532 353.1571 17.0747 2.4104 357.8729 356.3048 358.7235 11.9557 356.7172 355.7671 349.7664 22.7391 358.5942 352.6992 1.2399 359.1361 19.0404 9.1262 359.9916 343.6813 337.0577 
-4.7107 88.6089 189.5235 1.8706 359.6412 176.8482 0.5931 359.4216 358.2165 359.3836 10.6513 358.2718 359.2387 342.8465 359.2132 1.9478 11.4817 359.1147 338.4363 358.5827 7.5224 300.3601 29.2507 356.8058 14.1033 355.1723 322.2652 85.7557 0.5459 340.3057 22.0708 358.8663 354.1596 60.4022 46.1710 6.2735 337.0872 354.1315 28.4117 275.1890 353.1461 17.3436 2.3549 357.8647 356.2185 358.6880 11.9346 356.7950 355.8234 349.7483 22.7453 358.5347 352.7328 1.2723 359.1422 18.9392 9.0090 0.0403 343.6754 337.1255 
